<?xml version="1.0" encoding="utf-8"?>
<!-- Generator: Adobe Illustrator 15.1.0, SVG Export Plug-In . SVG Version: 6.00 Build 0)  -->
<!DOCTYPE svg PUBLIC "-//W3C//DTD SVG 1.1//EN" "http://www.w3.org/Graphics/SVG/1.1/DTD/svg11.dtd">
<svg version="1.1" id="Warstwa_1" xmlns="http://www.w3.org/2000/svg" xmlns:xlink="http://www.w3.org/1999/xlink" x="0px" y="0px"
	 width="134px" height="200px" viewBox="0 0 134 200" enable-background="new 0 0 134 200" xml:space="preserve">
<path fill="#FD0864" d="M7.018,162.018c0,0-3.389-14.358-1.633-42.38c4.625,6.781,5.92,7.223,5.92,7.223l-3.317-24.452
	c0,0,4.736-21.224,19.895-39.951c4.138,18.374,6.441,23.207,6.441,23.207s1.625-25.947,9.8-40.021
	c12.919-7.927,11.129-7.478,28.98-15.457c-1.627,13.804-1.352,27.967-1.352,27.967s6.572-19.826,16.528-32.908
	c22.092-4.026,42.778-4.773,42.778-4.773s-14.471,19.25-18.457,44.488c-12.399-0.375-26.272,3.564-32.116,10.532
	c16.799,10.069,29.622,4.876,29.622,4.876s-0.114,10.877-2.209,25.775c-4.501,0.199-32.593,4.011-54.382,10.259
	c28.16,2.765,38.424,7.134,45.824,13.129c-13.12,20.098-22.732,25.106-25.986,28.428c-10.419-7.022-23.137-11.268-30.266-10.713
	c14,10.656,19.066,16.144,19.066,16.144S29.628,178.502,7.018,162.018z"/>
<path fill="#222F3C" d="M1.876,193.908c0,0,6.755-98.883,78.402-132.063C13.564,107.117,14.312,180.9,14.312,180.9L1.876,193.908z"
	/>
</svg>
