<?xml version="1.0" encoding="utf-8"?>
<!-- Generator: Adobe Illustrator 15.1.0, SVG Export Plug-In . SVG Version: 6.00 Build 0)  -->
<!DOCTYPE svg PUBLIC "-//W3C//DTD SVG 1.1//EN" "http://www.w3.org/Graphics/SVG/1.1/DTD/svg11.dtd">
<svg version="1.1" id="Warstwa_1" xmlns="http://www.w3.org/2000/svg" xmlns:xlink="http://www.w3.org/1999/xlink" x="0px" y="0px"
	 width="100px" height="80px" viewBox="0 0 100 80" enable-background="new 0 0 100 80" xml:space="preserve">
<g>
	<path fill="#C70721" d="M94.18,9.98h5.115c0.055-0.274,0.082-0.545,0.082-0.812c0-0.146-0.007-0.279-0.02-0.397
		c-0.017-0.119-0.035-0.249-0.063-0.386H96.09v-1.47h2.434c0.028-0.147,0.05-0.283,0.063-0.406c0.013-0.124,0.021-0.26,0.021-0.406
		S98.6,5.824,98.587,5.706c-0.014-0.121-0.034-0.253-0.063-0.399H96.09V4.001h3.12c0.021-0.139,0.035-0.271,0.048-0.399
		c0.016-0.128,0.021-0.266,0.021-0.412c0-0.147-0.006-0.28-0.021-0.4c-0.013-0.119-0.027-0.247-0.048-0.384h-5.03V9.98z
		 M82.016,9.98c0.282,0.056,0.571,0.082,0.864,0.082c0.283,0,0.56-0.025,0.824-0.082l0.221-4.756l1.403,3.519
		c0.127,0.028,0.253,0.046,0.377,0.056c0.124,0.01,0.255,0.014,0.393,0.014c0.155,0,0.303-0.007,0.445-0.022
		c0.143-0.013,0.283-0.029,0.42-0.048l1.54-3.492l0.233,4.729c0.274,0.056,0.563,0.082,0.865,0.082s0.613-0.025,0.936-0.082
		l-0.412-7.575c-0.32-0.055-0.656-0.083-1.004-0.083c-0.366,0-0.688,0.028-0.963,0.083l-1.896,4.578l-1.844-4.578
		C84.09,2.35,83.749,2.322,83.4,2.322c-0.33,0-0.664,0.028-1.002,0.083L82.016,9.98z M75.58,1.526
		c0.165,0.036,0.33,0.059,0.494,0.068c0.165,0.008,0.324,0.013,0.48,0.013c0.34,0,0.676-0.027,1.004-0.082l-1.347-1.43
		c-0.202-0.028-0.423-0.05-0.668-0.07C75.303,0.009,75.059,0,74.811,0c-0.237,0-0.468,0.009-0.688,0.026
		c-0.223,0.02-0.409,0.042-0.563,0.07L75.58,1.526z M73.684,9.98h5.112c0.058-0.274,0.083-0.545,0.083-0.812
		c0-0.146-0.007-0.279-0.02-0.397c-0.016-0.119-0.034-0.249-0.063-0.386h-3.2v-1.47h2.432c0.027-0.147,0.049-0.283,0.063-0.406
		c0.014-0.124,0.02-0.26,0.02-0.406s-0.006-0.279-0.02-0.397c-0.014-0.121-0.035-0.253-0.063-0.399h-2.432V4.001h3.117
		c0.02-0.139,0.036-0.271,0.051-0.399c0.014-0.128,0.021-0.266,0.021-0.412c0-0.147-0.007-0.28-0.021-0.4
		c-0.015-0.119-0.031-0.247-0.051-0.384h-5.029V9.98z M67.88,9.98c0.304,0.056,0.624,0.082,0.964,0.082
		c0.33,0,0.655-0.025,0.977-0.082V2.406c-0.32-0.055-0.651-0.083-0.99-0.083c-0.32,0-0.637,0.028-0.949,0.083L67.88,9.98L67.88,9.98
		z M57.57,5.65c0,0.669,0.043,1.281,0.131,1.835c0.088,0.555,0.249,1.029,0.488,1.423c0.236,0.395,0.566,0.699,0.99,0.915
		c0.42,0.215,0.969,0.323,1.648,0.323c0.668,0,1.218-0.108,1.643-0.323c0.428-0.215,0.762-0.52,1.004-0.915
		c0.242-0.394,0.407-0.868,0.493-1.423C64.057,6.931,64.1,6.319,64.1,5.65V2.406c-0.154-0.028-0.314-0.046-0.479-0.055
		c-0.166-0.01-0.326-0.014-0.481-0.014c-0.129,0-0.271,0.004-0.427,0.014c-0.155,0.009-0.335,0.032-0.536,0.07v2.804
		c0,0.558-0.01,1.044-0.035,1.456c-0.021,0.414-0.076,0.756-0.162,1.032c-0.09,0.274-0.225,0.479-0.406,0.611
		c-0.184,0.133-0.432,0.199-0.742,0.199c-0.321,0-0.571-0.065-0.749-0.199C59.9,8.192,59.77,7.987,59.682,7.713
		c-0.086-0.276-0.141-0.618-0.164-1.032c-0.022-0.411-0.033-0.897-0.033-1.456V2.406c-0.157-0.028-0.316-0.046-0.477-0.055
		c-0.16-0.01-0.318-0.014-0.474-0.014c-0.165,0-0.328,0.004-0.488,0.014c-0.159,0.009-0.319,0.027-0.476,0.055V5.65L57.57,5.65z
		 M49.405,7.98c-0.275-0.398-0.413-0.987-0.413-1.767c0-0.788,0.138-1.379,0.413-1.772c0.274-0.395,0.646-0.591,1.115-0.591
		c0.476,0,0.85,0.196,1.119,0.591c0.271,0.393,0.406,0.985,0.406,1.772c0,0.779-0.137,1.368-0.406,1.767
		c-0.271,0.399-0.645,0.599-1.119,0.599C50.051,8.579,49.679,8.379,49.405,7.98 M52.029,9.85c0.439-0.197,0.81-0.469,1.106-0.818
		c0.3-0.348,0.526-0.763,0.681-1.244c0.156-0.481,0.233-1.006,0.233-1.575c0-0.568-0.077-1.094-0.233-1.582
		c-0.153-0.485-0.381-0.904-0.681-1.257c-0.298-0.352-0.667-0.629-1.106-0.831c-0.438-0.203-0.942-0.302-1.51-0.302
		c-0.562,0-1.058,0.1-1.494,0.302c-0.435,0.202-0.802,0.479-1.1,0.831c-0.297,0.354-0.524,0.772-0.68,1.257
		c-0.156,0.488-0.235,1.013-0.235,1.582c0,0.569,0.079,1.094,0.235,1.575c0.156,0.481,0.383,0.896,0.68,1.244
		c0.298,0.349,0.665,0.621,1.1,0.818c0.436,0.197,0.933,0.296,1.494,0.296C51.087,10.146,51.592,10.047,52.029,9.85 M51.592,10.188
		c-0.094,0.218-0.158,0.445-0.199,0.68c-0.041,0.234-0.072,0.47-0.09,0.708l2.817,0.496c0.091-0.266,0.153-0.504,0.187-0.716
		c0.031-0.21,0.053-0.462,0.063-0.756L51.592,10.188z M36.908,9.98c0.256,0.056,0.545,0.082,0.866,0.082
		c0.312,0,0.6-0.025,0.866-0.082V5.375l3.135,4.606c0.274,0.056,0.549,0.082,0.825,0.082c0.266,0,0.536-0.025,0.811-0.082V2.406
		c-0.248-0.055-0.513-0.083-0.797-0.083c-0.302,0-0.604,0.028-0.907,0.083v4.647l-3.134-4.647c-0.275-0.055-0.555-0.083-0.839-0.083
		c-0.274,0-0.549,0.028-0.824,0.083V9.98H36.908z M31.106,9.98c0.303,0.056,0.624,0.082,0.963,0.082c0.33,0,0.654-0.025,0.976-0.082
		V2.406c-0.322-0.055-0.651-0.083-0.99-0.083c-0.321,0-0.637,0.028-0.949,0.083V9.98z M26.832,8.365
		c-0.12,0.042-0.236,0.074-0.352,0.096c-0.114,0.022-0.233,0.04-0.357,0.048C26,8.519,25.864,8.522,25.718,8.522
		c-0.321,0-0.594-0.067-0.818-0.205c-0.224-0.138-0.408-0.318-0.55-0.542c-0.142-0.225-0.248-0.482-0.316-0.771
		c-0.068-0.289-0.103-0.588-0.103-0.901c0-0.247,0.025-0.504,0.075-0.77c0.051-0.266,0.142-0.508,0.275-0.728
		c0.133-0.22,0.309-0.401,0.529-0.542c0.22-0.142,0.5-0.213,0.838-0.213c0.276,0,0.52,0.024,0.736,0.075
		c0.216,0.05,0.461,0.125,0.736,0.227c0.128-0.311,0.229-0.585,0.302-0.819c0.073-0.233,0.119-0.456,0.137-0.666
		c-0.395-0.165-0.761-0.276-1.101-0.337c-0.338-0.06-0.668-0.089-0.99-0.089c-0.604,0-1.131,0.108-1.58,0.322
		c-0.451,0.217-0.823,0.502-1.122,0.86c-0.298,0.357-0.522,0.768-0.673,1.23c-0.151,0.463-0.227,0.945-0.227,1.45
		c0,0.523,0.067,1.029,0.2,1.52C22.2,8.114,22.411,8.544,22.7,8.916c0.289,0.371,0.66,0.668,1.113,0.894
		c0.454,0.225,1.001,0.337,1.643,0.337c0.201,0,0.389-0.004,0.563-0.014c0.174-0.009,0.346-0.029,0.515-0.062
		c0.17-0.032,0.346-0.075,0.529-0.131c0.184-0.055,0.386-0.128,0.604-0.219c-0.019-0.257-0.066-0.505-0.144-0.744
		c-0.078-0.238-0.172-0.49-0.282-0.755C27.087,8.276,26.95,8.324,26.832,8.365 M8.844,9.98h5.114
		c0.055-0.274,0.082-0.545,0.082-0.812c0-0.146-0.006-0.279-0.02-0.397c-0.014-0.119-0.034-0.249-0.062-0.386h-3.203v-1.47h2.433
		c0.028-0.147,0.048-0.283,0.062-0.406c0.014-0.124,0.021-0.26,0.021-0.406s-0.007-0.279-0.021-0.397
		c-0.014-0.121-0.034-0.253-0.062-0.399h-2.433V4.001h3.12c0.019-0.139,0.035-0.271,0.049-0.399c0.014-0.128,0.02-0.266,0.02-0.412
		c0-0.147-0.006-0.28-0.02-0.4c-0.014-0.119-0.03-0.247-0.049-0.384H8.844V9.98z M0.953,9.98h4.688
		c0.027-0.156,0.045-0.295,0.054-0.42c0.009-0.123,0.014-0.258,0.014-0.405c0-0.127-0.004-0.255-0.014-0.378
		c-0.009-0.124-0.027-0.263-0.054-0.42H2.878V2.392C2.721,2.364,2.563,2.346,2.403,2.336C2.243,2.328,2.08,2.323,1.915,2.323
		c-0.174,0-0.339,0.005-0.495,0.014c-0.156,0.01-0.312,0.028-0.468,0.056L0.953,9.98L0.953,9.98z"/>
	<path fill="#C70721" d="M44.355,27.939l-0.827-3.231l-1.305-4.846l-2.095,8.078c0.553,0.168,1.358,0.275,2.095,0.275
		C42.957,28.216,43.805,28.104,44.355,27.939"/>
	<path fill="#C70721" d="M38.326,38.8c1.668,0.837,6.124,0.837,7.794,0c0.002-0.432,0-3.341,0-3.899
		c-1.67,0.836-6.126,0.836-7.797,0C38.321,35.443,38.328,38.396,38.326,38.8"/>
	<path fill="#1A171B" d="M14.884,32.955c-0.593-1.418-1.42-2.592-2.41-3.454c-0.871,0.706-2.21,1.761-3.347,1.761
		c-2.993,0-4.793-2.834-4.793-6.378c0-3.546,1.8-6.461,4.793-6.461c1.136,0,2.255,0.742,3.125,1.449
		c1.263-0.913,1.833-1.585,2.553-2.93c-1.559-1.394-3.532-2.332-5.679-2.332C4.087,14.61,0,19.313,0,24.982
		c0,5.672,4.087,10.271,9.128,10.271C11.311,35.254,13.313,34.393,14.884,32.955"/>
	<path fill="#1A171B" d="M31.872,21.322c0-3.763-3.095-6.762-6.859-6.765c-2.556-0.001-5.774,0.231-7.475,0.517
		c-0.002,0.282,0,19.443,0,19.835c1.621,0.095,2.629,0.095,4.328,0V17.914c0,0,1.137-0.23,2.841-0.23
		c1.96,0,3.403,1.758,3.403,3.638c0,3.977-5.317,4.546-5.317,4.546l4.628,9.043c1.827,0.095,2.835,0.095,4.419-0.224
		c-0.285-0.732-4.293-7.472-4.293-7.472S31.872,25.867,31.872,21.322"/>
	<path fill="#1A171B" d="M50.665,34.688l-6.223-19.961c-1.28-0.22-3.247-0.232-4.45,0L33.74,34.688
		c1.093,0.318,2.572,0.318,4.59,0.223l3.904-14.953l1.478,5.488l2.396,9.465C47.862,35.006,49.142,35.006,50.665,34.688"/>
	<path fill="#1A171B" d="M99.779,14.725c-1.213-0.182-2.998-0.167-4.061,0c0,0.192,0.004,7.791,0.004,12.75
		c-1.154-2.397-5.025-11.065-5.467-12.75c-0.057,0-2.912-0.29-4.636,0c-0.003,0.286,0,19.791,0,20.185
		c1.61,0.095,2.516,0.095,4.058,0V23.039c1.441,2.898,4.84,9.697,5.465,11.871c1.465,0.095,2.717,0.095,4.637,0
		C99.782,34.624,99.779,15.119,99.779,14.725"/>
	<path fill="#1A171B" d="M49.277,14.752c0.373,0.85,4.353,10.396,5.469,12.911c0,3.95,0,7.087,0,7.247
		c1.704,0.095,2.783,0.095,4.6,0v-7.295c1.121-2.53,5.346-12.58,5.469-12.863c-1.16-0.207-3.191-0.143-4.275,0
		c-0.219,0.555-3.488,8.357-3.488,8.357s-3.294-7.802-3.496-8.357C52.018,14.505,50.568,14.61,49.277,14.752"/>
	<path fill="#1A171B" d="M79.021,24.807c0,3.598-2.129,6.516-5.156,6.516c-3.025,0-5.155-2.918-5.155-6.516s2.13-6.513,5.155-6.513
		C76.895,18.293,79.021,21.209,79.021,24.807 M82.884,24.807c0-5.631-4.073-10.195-9.096-10.195c-5.024,0-9.099,4.563-9.099,10.195
		c0,5.633,4.074,10.196,9.099,10.196C78.811,35.003,82.884,30.439,82.884,24.807"/>
</g>
<g>
	<path fill="#FF0721" d="M94.18,49.98h5.115c0.055-0.274,0.082-0.545,0.082-0.813c0-0.146-0.007-0.279-0.02-0.396
		c-0.017-0.119-0.035-0.25-0.063-0.387H96.09v-1.47h2.434c0.028-0.147,0.05-0.283,0.063-0.406c0.013-0.124,0.021-0.26,0.021-0.405
		c0-0.146-0.008-0.279-0.021-0.397c-0.014-0.121-0.034-0.253-0.063-0.399H96.09v-1.306h3.12c0.021-0.14,0.035-0.271,0.048-0.399
		c0.016-0.127,0.021-0.266,0.021-0.412s-0.006-0.279-0.021-0.399c-0.013-0.119-0.027-0.247-0.048-0.384h-5.03V49.98z M82.016,49.98
		c0.282,0.056,0.571,0.082,0.864,0.082c0.283,0,0.56-0.025,0.824-0.082l0.221-4.756l1.403,3.519
		c0.127,0.028,0.253,0.046,0.377,0.056s0.255,0.014,0.393,0.014c0.155,0,0.303-0.006,0.445-0.021
		c0.143-0.014,0.283-0.029,0.42-0.048l1.54-3.492l0.233,4.729c0.274,0.056,0.563,0.082,0.865,0.082s0.613-0.025,0.936-0.082
		l-0.412-7.576c-0.32-0.055-0.656-0.082-1.004-0.082c-0.366,0-0.688,0.027-0.963,0.082l-1.896,4.578l-1.844-4.578
		c-0.328-0.055-0.669-0.082-1.018-0.082c-0.33,0-0.664,0.027-1.002,0.082L82.016,49.98z M75.58,41.525
		c0.165,0.037,0.33,0.06,0.494,0.068c0.165,0.008,0.324,0.014,0.48,0.014c0.34,0,0.676-0.027,1.004-0.082l-1.347-1.43
		c-0.202-0.029-0.423-0.051-0.668-0.07C75.303,40.009,75.059,40,74.811,40c-0.237,0-0.468,0.009-0.688,0.025
		c-0.223,0.021-0.409,0.043-0.563,0.07L75.58,41.525z M73.684,49.98h5.112c0.058-0.274,0.083-0.545,0.083-0.813
		c0-0.146-0.007-0.279-0.02-0.396c-0.016-0.119-0.034-0.25-0.063-0.387h-3.2v-1.47h2.432c0.027-0.147,0.049-0.283,0.063-0.406
		c0.014-0.124,0.02-0.26,0.02-0.405c0-0.146-0.006-0.279-0.02-0.397c-0.014-0.121-0.035-0.253-0.063-0.399h-2.432v-1.306h3.117
		c0.02-0.14,0.036-0.271,0.051-0.399c0.014-0.127,0.021-0.266,0.021-0.412s-0.007-0.279-0.021-0.399
		c-0.015-0.119-0.031-0.247-0.051-0.384h-5.029V49.98z M67.88,49.98c0.304,0.056,0.624,0.082,0.964,0.082
		c0.33,0,0.655-0.025,0.977-0.082v-7.574c-0.32-0.055-0.651-0.084-0.99-0.084c-0.32,0-0.637,0.029-0.949,0.084L67.88,49.98
		L67.88,49.98z M57.57,45.65c0,0.668,0.043,1.281,0.131,1.834c0.088,0.556,0.249,1.029,0.488,1.424
		c0.236,0.395,0.566,0.699,0.99,0.914c0.42,0.216,0.969,0.324,1.648,0.324c0.668,0,1.218-0.108,1.643-0.324
		c0.428-0.215,0.762-0.52,1.004-0.914s0.407-0.868,0.493-1.424c0.089-0.553,0.132-1.166,0.132-1.834v-3.244
		c-0.154-0.028-0.314-0.047-0.479-0.055c-0.166-0.011-0.326-0.015-0.481-0.015c-0.129,0-0.271,0.004-0.427,0.015
		c-0.155,0.008-0.335,0.031-0.536,0.069v2.804c0,0.559-0.01,1.045-0.035,1.457c-0.021,0.414-0.076,0.756-0.162,1.031
		c-0.09,0.273-0.225,0.479-0.406,0.611c-0.184,0.133-0.432,0.199-0.742,0.199c-0.321,0-0.571-0.065-0.749-0.199
		c-0.181-0.133-0.312-0.338-0.399-0.611c-0.086-0.275-0.141-0.617-0.164-1.031c-0.022-0.412-0.033-0.897-0.033-1.457v-2.818
		c-0.157-0.028-0.316-0.047-0.477-0.055c-0.16-0.011-0.318-0.015-0.474-0.015c-0.165,0-0.328,0.004-0.488,0.015
		c-0.159,0.008-0.319,0.026-0.476,0.055V45.65L57.57,45.65z M49.405,47.98c-0.275-0.398-0.413-0.987-0.413-1.768
		c0-0.788,0.138-1.379,0.413-1.771c0.274-0.396,0.646-0.592,1.115-0.592c0.476,0,0.85,0.196,1.119,0.592
		c0.271,0.393,0.406,0.984,0.406,1.771c0,0.779-0.137,1.368-0.406,1.768c-0.271,0.398-0.645,0.599-1.119,0.599
		C50.051,48.579,49.679,48.379,49.405,47.98 M52.029,49.85c0.439-0.197,0.81-0.469,1.106-0.817c0.3-0.349,0.526-0.763,0.681-1.244
		c0.156-0.481,0.233-1.006,0.233-1.575c0-0.568-0.077-1.094-0.233-1.582c-0.153-0.484-0.381-0.904-0.681-1.257
		c-0.298-0.353-0.667-0.629-1.106-0.831c-0.438-0.203-0.942-0.302-1.51-0.302c-0.562,0-1.058,0.1-1.494,0.302
		c-0.435,0.202-0.802,0.479-1.1,0.831c-0.297,0.354-0.524,0.772-0.68,1.257c-0.156,0.488-0.235,1.014-0.235,1.582
		c0,0.569,0.079,1.094,0.235,1.575c0.156,0.481,0.383,0.896,0.68,1.244c0.298,0.349,0.665,0.62,1.1,0.817
		c0.436,0.197,0.933,0.297,1.494,0.297C51.087,50.146,51.592,50.047,52.029,49.85 M51.592,50.188
		c-0.094,0.219-0.158,0.445-0.199,0.681c-0.041,0.233-0.072,0.47-0.09,0.708l2.817,0.496c0.091-0.266,0.153-0.504,0.187-0.717
		c0.031-0.209,0.053-0.461,0.063-0.756L51.592,50.188z M36.908,49.98c0.256,0.056,0.545,0.082,0.866,0.082
		c0.312,0,0.6-0.025,0.866-0.082v-4.605l3.135,4.605c0.274,0.057,0.549,0.082,0.825,0.082c0.266,0,0.536-0.024,0.811-0.082v-7.574
		c-0.248-0.055-0.513-0.084-0.797-0.084c-0.302,0-0.604,0.029-0.907,0.084v4.646l-3.134-4.646c-0.275-0.055-0.555-0.084-0.839-0.084
		c-0.274,0-0.549,0.029-0.824,0.084v7.574H36.908z M31.106,49.98c0.303,0.056,0.624,0.082,0.963,0.082
		c0.33,0,0.654-0.025,0.976-0.082v-7.574c-0.322-0.055-0.651-0.084-0.99-0.084c-0.321,0-0.637,0.029-0.949,0.084V49.98z
		 M26.832,48.365c-0.12,0.042-0.236,0.074-0.352,0.096c-0.114,0.021-0.233,0.04-0.357,0.048c-0.123,0.011-0.259,0.013-0.405,0.013
		c-0.321,0-0.594-0.066-0.818-0.205c-0.224-0.137-0.408-0.317-0.55-0.541c-0.142-0.226-0.248-0.482-0.316-0.771
		c-0.068-0.289-0.103-0.588-0.103-0.9c0-0.248,0.025-0.504,0.075-0.771c0.051-0.267,0.142-0.508,0.275-0.728
		c0.133-0.221,0.309-0.401,0.529-0.543c0.22-0.142,0.5-0.213,0.838-0.213c0.276,0,0.52,0.024,0.736,0.075
		c0.216,0.05,0.461,0.125,0.736,0.228c0.128-0.312,0.229-0.586,0.302-0.819c0.073-0.233,0.119-0.456,0.137-0.666
		c-0.395-0.165-0.761-0.276-1.101-0.337c-0.338-0.061-0.668-0.089-0.99-0.089c-0.604,0-1.131,0.108-1.58,0.321
		c-0.451,0.217-0.823,0.502-1.122,0.86c-0.298,0.356-0.522,0.769-0.673,1.229c-0.151,0.464-0.227,0.945-0.227,1.451
		c0,0.522,0.067,1.028,0.2,1.52c0.134,0.49,0.345,0.921,0.634,1.293c0.289,0.371,0.66,0.668,1.113,0.895
		c0.454,0.225,1.001,0.336,1.643,0.336c0.201,0,0.389-0.004,0.563-0.014c0.174-0.009,0.346-0.029,0.515-0.063
		c0.17-0.031,0.346-0.074,0.529-0.131c0.184-0.055,0.386-0.127,0.604-0.219c-0.019-0.257-0.066-0.505-0.144-0.744
		c-0.078-0.238-0.172-0.49-0.282-0.754C27.087,48.275,26.95,48.324,26.832,48.365 M8.844,49.98h5.114
		c0.055-0.274,0.082-0.545,0.082-0.813c0-0.146-0.006-0.279-0.02-0.396c-0.014-0.119-0.034-0.25-0.062-0.387h-3.203v-1.47h2.433
		c0.028-0.147,0.048-0.283,0.062-0.406c0.014-0.124,0.021-0.26,0.021-0.405c0-0.146-0.007-0.279-0.021-0.397
		c-0.014-0.121-0.034-0.253-0.062-0.399h-2.433v-1.306h3.12c0.019-0.14,0.035-0.271,0.049-0.399c0.014-0.127,0.02-0.266,0.02-0.412
		s-0.006-0.279-0.02-0.399c-0.014-0.119-0.03-0.247-0.049-0.384H8.844V49.98z M0.953,49.98h4.688
		c0.027-0.156,0.045-0.295,0.054-0.42c0.009-0.123,0.014-0.258,0.014-0.406c0-0.127-0.004-0.254-0.014-0.377
		c-0.009-0.125-0.027-0.264-0.054-0.42H2.878v-5.965c-0.157-0.029-0.315-0.047-0.475-0.057c-0.16-0.008-0.323-0.014-0.488-0.014
		c-0.174,0-0.339,0.006-0.495,0.015c-0.156,0.011-0.312,0.028-0.468,0.056L0.953,49.98L0.953,49.98z"/>
	<path fill="#FF0721" d="M44.355,67.939l-0.827-3.231l-1.305-4.847l-2.095,8.078c0.553,0.168,1.358,0.275,2.095,0.275
		C42.957,68.216,43.805,68.104,44.355,67.939"/>
	<path fill="#FF0721" d="M38.326,78.8c1.668,0.837,6.124,0.837,7.794,0c0.002-0.432,0-3.341,0-3.899
		c-1.67,0.836-6.126,0.836-7.797,0C38.321,75.443,38.328,78.396,38.326,78.8"/>
	<path fill="#57171B" d="M14.884,72.955c-0.593-1.418-1.42-2.592-2.41-3.454c-0.871,0.706-2.21,1.761-3.347,1.761
		c-2.993,0-4.793-2.834-4.793-6.378c0-3.546,1.8-6.461,4.793-6.461c1.136,0,2.255,0.742,3.125,1.449
		c1.263-0.913,1.833-1.585,2.553-2.931c-1.559-1.394-3.532-2.332-5.679-2.332C4.087,54.609,0,59.313,0,64.982
		c0,5.672,4.087,10.271,9.128,10.271C11.311,75.254,13.313,74.393,14.884,72.955"/>
	<path fill="#57171B" d="M31.872,61.322c0-3.764-3.095-6.762-6.859-6.766c-2.556,0-5.774,0.231-7.475,0.518
		c-0.002,0.281,0,19.443,0,19.835c1.621,0.095,2.629,0.095,4.328,0V57.914c0,0,1.137-0.23,2.841-0.23
		c1.96,0,3.403,1.758,3.403,3.639c0,3.977-5.317,4.546-5.317,4.546l4.628,9.043c1.827,0.095,2.835,0.095,4.419-0.224
		c-0.285-0.732-4.293-7.472-4.293-7.472S31.872,65.867,31.872,61.322"/>
	<path fill="#57171B" d="M50.665,74.688l-6.223-19.961c-1.28-0.221-3.247-0.232-4.45,0L33.74,74.688
		c1.093,0.318,2.572,0.318,4.59,0.223l3.904-14.953l1.478,5.488l2.396,9.465C47.862,75.006,49.142,75.006,50.665,74.688"/>
	<path fill="#57171B" d="M99.779,54.725c-1.213-0.182-2.998-0.166-4.061,0c0,0.192,0.004,7.791,0.004,12.75
		c-1.154-2.397-5.025-11.065-5.467-12.75c-0.057,0-2.912-0.289-4.636,0c-0.003,0.287,0,19.791,0,20.186
		c1.61,0.095,2.516,0.095,4.058,0V63.039c1.441,2.898,4.84,9.697,5.465,11.871c1.465,0.095,2.717,0.095,4.637,0
		C99.782,74.624,99.779,55.119,99.779,54.725"/>
	<path fill="#57171B" d="M49.277,54.752c0.373,0.85,4.353,10.396,5.469,12.911c0,3.95,0,7.087,0,7.247
		c1.704,0.095,2.783,0.095,4.6,0v-7.295c1.121-2.53,5.346-12.58,5.469-12.863c-1.16-0.207-3.191-0.143-4.275,0
		c-0.219,0.555-3.488,8.357-3.488,8.357s-3.294-7.803-3.496-8.357C52.018,54.505,50.568,54.609,49.277,54.752"/>
	<path fill="#57171B" d="M79.021,64.807c0,3.598-2.129,6.516-5.156,6.516c-3.025,0-5.155-2.918-5.155-6.516s2.13-6.513,5.155-6.513
		C76.895,58.293,79.021,61.209,79.021,64.807 M82.884,64.807c0-5.631-4.073-10.195-9.096-10.195c-5.024,0-9.099,4.563-9.099,10.195
		c0,5.633,4.074,10.196,9.099,10.196C78.811,75.003,82.884,70.439,82.884,64.807"/>
</g>
</svg>
