<?xml version="1.0" encoding="utf-8"?>
<!-- Generator: Adobe Illustrator 15.1.0, SVG Export Plug-In . SVG Version: 6.00 Build 0)  -->
<!DOCTYPE svg PUBLIC "-//W3C//DTD SVG 1.1//EN" "http://www.w3.org/Graphics/SVG/1.1/DTD/svg11.dtd">
<svg version="1.1" id="Warstwa_1" xmlns="http://www.w3.org/2000/svg" xmlns:xlink="http://www.w3.org/1999/xlink" x="0px" y="0px"
	 width="30px" height="30px" viewBox="0 0 30 30" enable-background="new 0 0 30 30" xml:space="preserve">
<path fill="#222F3C" d="M16.984,29.67c-0.074,0-0.147-0.029-0.203-0.084l-6.889-6.893l-6.89,6.888
	c-0.054,0.054-0.128,0.085-0.204,0.085l0,0c-0.078,0-0.151-0.032-0.204-0.085l-2.183-2.185c-0.112-0.112-0.112-0.296,0-0.408
	l6.89-6.888l-6.888-6.893c-0.113-0.113-0.113-0.296,0-0.409l2.183-2.182c0.055-0.055,0.128-0.086,0.205-0.086l0,0
	c0.076,0,0.15,0.031,0.204,0.086l6.889,6.892l6.892-6.888c0.056-0.055,0.13-0.084,0.203-0.084c0.074,0,0.147,0.029,0.205,0.084
	l2.183,2.184c0.054,0.054,0.084,0.128,0.084,0.204c0,0.076-0.031,0.149-0.084,0.204L12.484,20.1l6.888,6.892
	c0.055,0.055,0.085,0.128,0.085,0.204c0,0.077-0.031,0.15-0.085,0.205l-2.186,2.184C17.132,29.643,17.059,29.67,16.984,29.67z"/>
</svg>
